{"title":"Sweet Dreams - Depois da Meia-Noite (1985)","uid":7960177,"size":1038265195,"categoryP":"video","categoryS":"movies","magnet":"?xt=urn:btih:aadac8fbda790b6a79446c1c97be2663e923eb42&amp;dn=Sweet+Dreams+-+Depois+da+Meia-Noite+%281985%29&amp;tr=udp%3A%2F%2Ftracker.openbittorrent.com%3A80&amp;tr=udp%3A%2F%2Fopen.demonii.com%3A1337&amp;tr=udp%3A%2F%2Ftracker.coppersurfer.tk%3A6969&amp;tr=udp%3A%2F%2Fexodus.desync.com%3A6969","seeders":0,"leechers":1,"uploader":"Farroba","files":-1,"time":1356553850,"description":"Format                                   : AVI\nFormat/Info                              : Audio Video Interleave\nFile size                                : 990 MiB\nDuration                                 : 1h 50mn\nOverall bit rate                         : 1 254 Kbps\nWriting application                      : VirtualDubMod 1.5.4.1 (build 2178/release)\nWriting library                          : VirtualDubMod build 2178/release\n\nVideo\nID                                       : 0\nFormat                                   : MPEG-4 Visual\nFormat profile                           : Advanced Simple@L5\nFormat settings, BVOP                    : 1\nFormat settings, QPel                    : No\nFormat settings, GMC                     : No warppoints\nFormat settings, Matrix                  : Custom\nCodec ID                                 : XVID\nCodec ID/Hint                            : XviD\nDuration                                 : 1h 50mn\nBit rate                                 : 1 119 Kbps\nWidth                                    : 672 pixels\nHeight                                   : 384 pixels\nDisplay aspect ratio                     : 16:9\nFrame rate                               : 25.000 fps\nColor space                              : YUV\nChroma subsampling                       : 4:2:0\nBit depth                                : 8 bits\nScan type                                : Progressive\nCompression mode                         : Lossy\nBits/(Pixel*Frame)                       : 0.173\nStream size                              : 883 MiB (89%)\nWriting library                          : XviD 64\n\nAudio\nID                                       : 1\nFormat                                   : MPEG Audio\nFormat version                           : Version 1\nFormat profile                           : Layer 3\nMode                                     : Joint stereo\nMode extension                           : MS Stereo\nCodec ID                                 : 55\nCodec ID/Hint                            : MP3\nDuration                                 : 1h 50mn\nBit rate mode                            : Constant\nBit rate                                 : 128 Kbps\nChannel(s)                               : 2 channels\nSampling rate                            : 48.0 KHz\nCompression mode                         : Lossy\nStream size                              : 101 MiB (10%)\nAlignment                                : Aligned on interleaves\nInterleave, duration                     : 80 ms (2.00 video frames)\nInterleave, preload duration             : 504 ms\nWriting library                          : LAME3.98r\nEncoding settings                        : -m j -V 4 -q 2 -lowpass 17 -b 128\nLanguage                                 : Englis","torrent":{"xt":"urn:btih:aadac8fbda790b6a79446c1c97be2663e923eb42","amp;dn":"Sweet+Dreams+-+Depois+da+Meia-Noite+%281985%29","amp;tr":["udp%3A%2F%2Ftracker.openbittorrent.com%3A80","udp%3A%2F%2Fopen.demonii.com%3A1337","udp%3A%2F%2Ftracker.coppersurfer.tk%3A6969","udp%3A%2F%2Fexodus.desync.com%3A6969"],"infoHash":"aadac8fbda790b6a79446c1c97be2663e923eb42","infoHashBuffer":{"type":"Buffer","data":[170,218,200,251,218,121,11,106,121,68,108,28,151,190,38,99,233,35,235,66]},"announce":[],"urlList":[]}}